<?xml version="1.0" encoding="UTF-8"?>
<svg width="399px" height="82px" viewBox="0 0 399 82" version="1.1" xmlns="http://www.w3.org/2000/svg" xmlns:xlink="http://www.w3.org/1999/xlink">
    <!-- Generator: Sketch 64 (93537) - https://sketch.com -->
    <title>Artboard</title>
    <desc>Created with Sketch.</desc>
    <g id="Artboard" stroke="none" stroke-width="1" fill="none" fill-rule="evenodd">
        <g id="Components/Logo/White/Horizontal" transform="translate(0.000000, 10.000000)" fill="#FFFFFF">
            <g id="Group">
                <g id="Group-14" transform="translate(71.708108, 7.482759)">
                    <path d="M80.2183907,16.7046697 C81.7770104,16.7046697 83.0405213,17.9633071 83.0405213,19.5213655 L83.040763,20.9124552 C86.3038953,21.3746154 88.9216592,23.0156486 91.0560607,25.6733002 C91.5379797,26.2938609 91.4002885,27.1212752 90.7806785,27.6039335 L90.7806785,27.6039335 L88.508775,29.6724692 C87.7613089,30.3586977 87.2956257,29.9725085 86.8057896,29.5352518 L86.6499449,29.3966644 C85.4107248,28.0176406 83.4142035,26.7765192 81.1423,26.7765192 C76.6673386,26.7765192 73.156215,30.5688347 73.156215,35.2575156 C73.156215,40.0151477 76.5984931,43.8074631 81.0734545,43.8074631 C84.5845781,43.8074631 86.0303348,42.0147322 87.4760916,40.6357084 C88.0957016,40.0151477 88.7153117,40.0151477 89.3349217,40.497806 L89.3349217,40.497806 L91.1937519,42.0147322 C91.8822075,42.5663417 92.1575897,43.2558536 91.6756708,43.9453655 C89.7981022,46.9423315 86.8204179,49.0378219 83.0409387,49.5915967 L83.0405213,50.4960797 C83.0405213,52.0516979 81.7758364,53.3127756 80.2183907,53.3127756 L79.8297934,53.3127756 C78.2711738,53.3127756 77.0076629,52.0541382 77.0076629,50.4960797 L77.0069594,49.1736041 C71.1229433,47.4787464 66.6158868,42.1239113 66.6158868,35.3264668 C66.6158868,28.6757204 71.1700056,23.1767686 77.0068329,21.3904988 L77.0076629,19.5213655 C77.0076629,17.9657473 78.2723477,16.7046697 79.8297934,16.7046697 L80.2183907,16.7046697 Z M16.5403233,0.092408811 C20.2579836,0.092408811 23.1494971,1.74723736 24.3887172,2.8504564 C24.8706361,3.26416354 24.9394817,3.95367544 24.6640994,4.43633376 L24.6640994,4.43633376 L22.9429604,7.5391373 C22.5987326,8.15969801 21.910277,8.2286492 21.2218214,7.74599087 C20.3268291,7.12543016 18.3303079,6.09116232 16.6780144,6.09116232 C13.6488098,6.09116232 11.5145974,8.29760039 11.5145974,12.9173301 L11.5145974,12.9173301 L11.5145974,21.4672776 L18.9499179,21.4672776 C19.7072191,21.4672776 20.2579836,22.0188871 20.2579836,22.7773502 L20.2579836,22.7773502 L20.2579836,25.8801538 C20.2579836,26.5696657 19.7072191,27.1902264 18.9499179,27.1902264 L18.9499179,27.1902264 L11.5145974,27.1902264 L11.5145974,47.7376809 C11.5145974,48.4271928 10.8949874,49.0477535 10.2065318,49.0477535 L10.2065318,49.0477535 L6.1446437,49.0477535 C5.4561881,49.0477535 4.83657805,48.4271928 4.83657805,47.7376809 L4.83657805,47.7376809 L4.83657805,27.1902264 L1.60083672,27.1902264 C0.843535551,27.1902264 0.292771069,26.5696657 0.292771069,25.8801538 L0.292771069,25.8801538 L0.292771069,22.7773502 C0.292771069,22.0188871 0.843535551,21.4672776 1.60083672,21.4672776 L1.60083672,21.4672776 L4.83657805,21.4672776 L4.83657805,12.9173301 C4.83657805,4.36738257 9.93114952,0.092408811 16.5403233,0.092408811 Z M29.5535539,21.4672776 C30.2420095,21.4672776 30.8616196,22.0878383 30.8616196,22.7773502 L30.8616196,22.7773502 L30.8616196,47.7376809 C30.8616196,48.4271928 30.2420095,49.0477535 29.5535539,49.0477535 L29.5535539,49.0477535 L25.629357,49.0477535 C24.9409014,49.0477535 24.3212913,48.4271928 24.3212913,47.7376809 L24.3212913,47.7376809 L24.3212913,22.7773502 C24.3212913,22.0878383 24.9409014,21.4672776 25.629357,21.4672776 L25.629357,21.4672776 Z M51.6302667,20.7777657 C60.0294251,20.7777657 63.1274753,26.707568 63.1274753,33.8784918 L63.1274753,33.8784918 L63.1274753,47.7376809 C63.1274753,48.4271928 62.5078653,49.0477535 61.8194097,49.0477535 L61.8194097,49.0477535 L57.8952127,49.0477535 C57.1379115,49.0477535 56.5871471,48.4271928 56.5871471,47.7376809 L56.5871471,47.7376809 L56.5871471,33.602687 C56.5871471,29.1898109 54.4529347,26.7765192 50.8729656,26.7765192 C46.5356953,26.7765192 43.5753362,29.948274 43.2311084,30.9135906 L43.2311084,30.9135906 L43.2311084,47.7376809 C43.2311084,48.6340464 42.818035,49.0477535 41.6476605,49.0477535 L41.6476605,49.0477535 L38.0676913,49.0477535 C37.3792357,49.0477535 36.7596257,48.4271928 36.7596257,47.7376809 L36.7596257,47.7376809 L36.7596257,22.7773502 C36.7596257,22.0878383 37.3792357,21.4672776 38.0676913,21.4672776 L38.0676913,21.4672776 L40.0642126,21.4672776 C40.6149771,21.4672776 41.0280504,21.8120336 41.1657415,22.2946919 L41.1657415,22.2946919 L41.9918883,24.6390324 C42.4738072,24.0874228 46.1226219,20.7777657 51.6302667,20.7777657 Z M100.809418,0.781920708 C101.497874,0.781920708 102.117484,1.40248142 102.117484,2.09199331 L102.117484,2.09199331 L102.117484,23.7426669 C102.805939,23.2600086 105.972835,20.7777657 110.378951,20.7777657 C118.158499,20.7777657 121.87616,26.3628121 121.87616,33.8784918 L121.87616,33.8784918 L121.87616,47.7376809 C121.87616,48.4271928 121.25655,49.0477535 120.568094,49.0477535 L120.568094,49.0477535 L116.712743,49.0477535 C115.955442,49.0477535 115.404677,48.4271928 115.404677,47.7376809 L115.404677,47.7376809 L115.404677,33.7405894 C115.404677,29.2587621 113.132774,26.7765192 109.552804,26.7765192 C105.353225,26.7765192 102.461712,29.948274 102.117484,31.1204442 L102.117484,31.1204442 L102.117484,47.7376809 C102.117484,48.496144 101.635565,49.0477535 100.740573,49.0477535 L100.740573,49.0477535 L96.8163757,49.0477535 C96.1279201,49.0477535 95.5083101,48.4271928 95.5083101,47.7376809 L95.5083101,47.7376809 L95.5083101,2.09199331 C95.5083101,1.40248142 96.1279201,0.781920708 96.8163757,0.781920708 L96.8163757,0.781920708 Z" id="Combined-Shape"></path>
                </g>
                <g id="Group-2" fill-rule="nonzero">
                    <path d="M38.315836,54.5460427 C39.8650857,53.5813938 37.4398816,52.5338173 36.1253457,52.0258668 C34.8108098,51.5179162 33.8779536,52.0258668 31.7938196,52.0258668 C26.7941045,52.0258668 22.9943211,47.8174222 22.9943211,42.5568664 C22.9943211,37.2963107 26.8607674,33.21938 31.8604824,33.21938 C34.4603343,33.21938 36.6602089,34.468762 37.9934662,35.9811717 C38.593432,36.5072273 38.9267464,37.1647968 39.9266894,36.2441995 L41.1932839,35.1920884 C41.7932497,34.7317898 41.9265754,33.9427064 41.4599353,33.3508939 C39.513588,30.8976917 37.0849104,29.3960405 34.1027789,28.9160977 L34.1027789,25.0080011 C34.1027789,24.1838873 33.4233581,23.5172414 32.58525,23.5172414 L30.6963459,23.5172414 C29.8583032,23.5172414 29.1788171,24.1846772 29.1788171,25.0080011 L29.1788171,29.041107 C23.1064539,30.3460058 18.1945946,35.8599449 18.1945946,42.6226234 C18.1945946,49.5383245 23.0078455,54.8882483 29.1788171,56.1048997 L29.1788171,60.5092403 C29.1788171,61.3333541 29.8582379,62 30.6963459,62 L32.58525,62 C33.4232928,62 34.1027789,61.3325642 34.1027789,60.5092403 L34.1027789,56.1666243 C35.6569895,55.8854193 37.0747217,55.3188294 38.315836,54.5460427 Z" id="Combined-Shape"></path>
                    <path d="M4.08851025,51.3958544 L5.90258563,55.4876806 C5.97165147,55.4141207 6.09556988,55.280639 6.26658682,55.0940578 C6.54852171,54.786464 6.86189274,54.4395703 7.19898489,54.0601396 C8.16259984,52.9754952 9.12661505,51.8437177 10.0304494,50.7169416 C10.4801565,50.1563087 10.9046067,49.609505 11.2997831,49.0797203 C11.5755667,48.709997 11.8360909,48.3498924 12.0803331,48.0000977 C12.7525918,47.0373132 12.6366591,45.7395862 11.8040499,44.9074425 C8.63308189,41.7382473 6.43135517,37.7468923 5.47110547,33.2935256 C2.73074141,20.5844915 10.960592,8.09187565 23.8529913,5.39048706 C33.9050945,3.28423545 44.0957547,7.75549626 49.2925269,16.3065226 C49.6551089,16.903133 50.2590281,17.3185794 50.952179,17.4482259 L59.1408002,18.9798193 L57.7886972,14.9294357 L52.7603863,20.277312 C52.303432,20.7633072 52.0669718,21.4117987 52.1054924,22.0733569 L52.5378402,29.4985555 L52.5363086,29.2486975 C52.5352585,29.2715592 52.531037,29.3397649 52.5223216,29.4502041 C52.5066063,29.6493458 52.4837558,29.8846483 52.4524653,30.1529899 C52.3612404,30.935318 52.2206447,31.8135084 52.0205716,32.7624603 C51.4488026,35.474377 50.5202924,38.1833292 49.16461,40.6908948 C45.6897769,47.1181909 40.0707638,51.1435211 31.5784137,51.7888962 C30.2172932,51.8923344 29.19895,53.0639004 29.3038806,54.405662 C29.4088112,55.7474237 30.5972804,56.7512832 31.958401,56.647845 C42.2358338,55.8668128 49.2964698,50.8087375 53.5273781,42.9829515 C55.1231001,40.0313917 56.1993925,36.891281 56.8608152,33.7541348 C57.0923593,32.6559146 57.2560995,31.6331596 57.3638033,30.709511 C57.430214,30.1399847 57.4634683,29.7185928 57.4749266,29.469147 C57.478751,29.38589 57.4782398,29.3024944 57.473395,29.219289 L57.0410473,21.7940904 L56.3861534,23.5901353 L61.4144643,18.2422591 C62.7352632,16.8375192 61.9712802,14.5489182 60.0623614,14.1918754 L51.8737403,12.660282 L53.5333924,13.8019852 C47.2590716,3.47790705 34.9590735,-1.91884823 22.8251427,0.623615856 C7.26208916,3.88459578 -2.67257103,18.965051 0.635458126,34.3067553 C1.79348266,39.6773458 4.45523017,44.50264 8.2843647,48.3296338 L8.193718,47.3149538 C8.13183919,46.6222954 8.00808156,45.2369787 8.00808156,45.2369787 C7.7940592,45.5434937 7.56324077,45.862538 7.31693346,46.1927446 C6.95765886,46.6743983 6.56799571,47.1763871 6.15261795,47.6942229 C5.30512954,48.7507547 4.39272752,49.821937 3.47992524,50.8493867 C3.16027136,51.209189 2.8638068,51.5373676 2.59845332,51.8268709 C2.50624297,51.9274734 2.42473623,52.0158147 2.35491937,52.0910197 C0.809668539,53.7374699 1.93209796,56.2692203 4.08851025,56.2692203 L16.107572,56.2692203 C17.4727311,56.2692203 18.5794113,55.1782802 18.5794113,53.8325373 C18.5794113,52.4867945 17.4727311,51.3958544 16.107572,51.3958544 L4.08851025,51.3958544 Z" id="Oval-8"></path>
                    <ellipse id="Oval-10" cx="39.0648649" cy="17.637931" rx="2.67567568" ry="2.67241379"></ellipse>
                </g>
            </g>
        </g>
    </g>
</svg>